# 3ds Max Wavefront OBJ Exporter v0.99 - (c)2007 guruware
# File Created: 01.06.2022 08:10:22

mtllib foundation.mtl

#
# object Plane002
#

v  4.6897 11.9749 17.7274
v  4.6897 11.9749 18.7274
v  5.6897 11.9749 18.7274
v  5.6897 11.9749 17.7274
v  2.4654 11.9749 17.7274
v  2.4654 11.9749 18.7274
v  -0.8116 11.9749 17.7274
v  -0.8116 11.9749 18.7274
v  -3.8871 11.9749 17.7274
v  -3.8871 11.9749 18.7274
v  -7.1887 11.9749 17.7274
v  -7.1887 11.9749 18.7274
v  -7.8108 11.9749 17.7274
v  -7.8108 11.9749 18.7274
v  -8.8882 11.9749 17.7274
v  -8.8882 11.9749 18.7274
v  -9.8795 11.9749 17.7274
v  -9.8795 11.9749 18.7274
v  -13.6333 11.9749 17.7274
v  -13.6333 11.9749 18.7274
v  -15.1060 11.9749 17.7274
v  -15.1060 11.9749 18.7274
v  -15.6948 11.9749 17.7274
v  -15.6948 11.9749 18.7274
v  -18.7783 11.9749 17.7274
v  -18.7783 11.9749 18.7274
v  -22.2133 11.9749 17.7274
v  -22.2133 11.9749 18.7274
v  -25.3329 11.9749 17.7274
v  -25.3329 11.9749 18.7274
v  -27.7254 11.9749 17.7274
v  -27.7254 11.9749 18.7274
v  -28.7098 11.9749 17.7274
v  -28.7098 11.9749 18.7274
v  -33.0170 11.9749 17.7274
v  -33.0170 11.9749 18.7274
v  -36.2339 11.9749 17.7274
v  -36.2339 11.9749 18.7274
v  -38.9856 11.9749 17.7274
v  -38.9856 11.9749 18.7274
v  -41.8613 11.9749 17.7274
v  -41.8613 11.9749 18.7274
v  -43.9235 11.9749 17.7274
v  -43.9235 11.9749 18.7274
v  -44.9305 11.9749 17.7274
v  -44.9305 11.9749 18.7274
v  5.6897 11.9749 13.2780
v  4.6898 11.9749 13.2780
v  -8.8882 11.9749 11.1833
v  -9.8793 11.9749 11.1833
v  -27.7254 11.9749 6.9938
v  -28.7098 11.9749 6.9938
v  -43.9235 11.9749 11.9084
v  -44.9305 11.9749 11.9084
v  4.6899 11.9749 2.8006
v  5.6897 11.9749 2.8006
v  5.6897 11.9749 2.1567
v  4.6899 11.9749 2.1567
v  -9.8791 11.9749 2.4015
v  -8.8882 11.9749 2.4015
v  -8.8882 11.9749 1.7576
v  -9.8791 11.9749 1.7576
v  -28.7098 11.9749 2.4015
v  -27.7254 11.9749 2.4015
v  -27.7254 11.9749 1.7576
v  -28.7098 11.9749 1.7576
v  -44.9305 11.9749 2.4015
v  -43.9235 11.9749 2.4015
v  -43.9235 11.9749 1.7576
v  -44.9305 11.9749 1.7576
v  -37.0806 11.9749 2.4015
v  -37.0806 11.9749 1.7576
v  -13.3704 11.9749 2.4015
v  -13.3704 11.9749 1.7576
v  -8.5922 11.9749 2.4015
v  -8.5922 11.9749 1.7576
v  9.0958 11.9749 2.8006
v  9.0958 11.9749 2.1567
v  9.9217 11.9749 2.8006
v  9.9217 11.9749 2.1567
v  -50.4403 11.9749 1.7576
v  -50.4403 11.9749 2.4015
v  -51.3947 11.9749 1.7576
v  -51.3947 11.9749 2.4015
v  -27.7254 11.9749 -0.9948
v  -28.7098 11.9749 -0.9948
v  -43.9235 11.9749 -1.1657
v  -44.9305 11.9749 -1.1657
v  9.9217 11.9749 -1.4904
v  9.0958 11.9749 -1.4904
v  -50.4403 11.9749 -1.3651
v  -51.3947 11.9749 -1.3651
v  -28.7098 11.9749 -9.1608
v  -27.7253 11.9749 -9.1608
v  -27.7253 11.9749 -9.8474
v  -28.7098 11.9749 -9.8474
v  -44.9305 11.9749 -9.1608
v  -43.9235 11.9749 -9.1608
v  -43.9235 11.9749 -9.8474
v  -44.9305 11.9749 -9.8474
v  9.0958 11.9749 -7.9728
v  9.9217 11.9749 -7.9599
v  9.9217 11.9749 -8.6465
v  9.0958 11.9749 -8.6595
v  -51.3947 11.9749 -9.1608
v  -50.4403 11.9749 -9.1608
v  -50.4403 11.9749 -9.8474
v  -51.3947 11.9749 -9.8474
v  -20.3267 11.9749 -9.0132
v  -20.3267 11.9749 -8.3265
v  -21.2111 11.9749 -9.0132
v  -21.2111 11.9749 -8.3265
v  -33.1778 11.9749 -9.8474
v  -33.1778 11.9749 -9.1608
v  -43.9235 11.9749 -11.8287
v  -44.9305 11.9749 -11.8287
v  -20.3267 11.9749 -26.8254
v  -21.2110 11.9749 -26.8465
v  -44.9305 11.9749 -26.8254
v  -43.9235 11.9749 -26.8254
v  -43.9235 11.9749 -27.8174
v  -44.9305 11.9749 -27.8174
v  -20.3267 11.9749 -27.8174
v  -21.2110 11.9749 -27.8174
v  -42.3531 11.9749 -26.8281
v  -42.3531 11.9749 -27.8174
v  -8.8882 11.9749 7.5124
v  -9.8792 11.9749 7.5124
v  5.6897 11.9749 7.8397
v  4.6898 11.9749 7.8397
v  5.6897 11.9749 3.9092
v  4.6899 11.9749 3.9092
v  -27.7254 11.9749 3.6076
v  -28.7098 11.9749 3.6076
v  -43.9235 11.9749 7.7940
v  -44.9305 11.9749 7.7940
v  -43.9235 11.9749 -6.4140
v  -44.9305 11.9749 -6.4140
v  -27.7253 11.9749 -6.2717
v  -28.7098 11.9749 -6.2717
v  -50.4403 11.9749 -5.8585
v  -51.3947 11.9749 -5.8585
v  -5.1814 11.9749 2.4015
v  -5.1814 11.9749 1.7576
v  -10.0582 11.9749 2.4015
v  -10.0582 11.9749 1.7576
v  -27.7253 11.9749 -13.1152
v  -28.7098 11.9749 -13.1152
v  -27.7253 11.9749 -19.8030
v  -28.7098 11.9749 -19.8030
v  -27.7253 11.9749 -26.8274
v  -28.7098 11.9749 -26.8274
v  -29.8893 11.9749 -26.8465
v  -29.8893 11.9749 -27.8174
v  -33.4567 11.9749 -26.8360
v  -33.4567 11.9749 -27.8174
v  -38.4012 11.9749 -26.8307
v  -38.4012 11.9749 -27.8174
v  -43.9235 11.9749 -16.1832
v  -43.9235 11.9749 -19.9798
v  -44.9305 11.9749 -19.9798
v  -44.9305 11.9749 -16.1832
v  -37.0806 11.9749 -9.8474
v  -37.0806 11.9749 -9.1608
v  -33.1778 11.9749 2.4015
v  -33.1778 11.9749 1.7576
v  5.6897 8.0000 18.7274
v  5.6897 8.0000 17.7274
v  5.6897 8.0000 13.2780
v  5.6897 8.0000 7.8397
v  5.6897 8.0000 3.9092
v  5.6897 8.0000 2.8006
v  9.0958 8.0000 2.8006
v  9.9217 8.0000 2.8006
v  9.9217 8.0000 2.1567
v  9.9217 8.0000 -1.4904
v  9.9217 8.0000 -7.9599
v  9.9217 8.0000 -8.6465
v  9.0958 8.0000 -8.6595
v  -20.3267 8.0000 -9.0132
v  -20.3267 8.0000 -26.8254
v  -20.3267 8.0000 -27.8174
v  -21.2110 8.0000 -27.8174
v  -29.8893 8.0000 -27.8174
v  -33.4567 8.0000 -27.8174
v  -38.4012 8.0000 -27.8174
v  -42.3531 8.0000 -27.8174
v  -43.9235 8.0000 -27.8174
v  -44.9305 8.0000 -27.8174
v  -44.9305 8.0000 -26.8254
v  -44.9305 8.0000 -24.3524
v  -44.9305 11.9749 -24.3524
v  -44.9305 8.0000 -16.1832
v  -44.9305 8.0000 -11.8287
v  -44.9305 8.0000 -9.8474
v  -50.4403 8.0000 -9.8474
v  -51.3947 8.0000 -9.8474
v  -51.3947 8.0000 -9.1608
v  -51.3947 8.0000 -5.8585
v  -51.3947 8.0000 -1.3651
v  -51.3947 8.0000 1.7576
v  -51.3947 8.0000 2.4015
v  -50.4403 8.0000 2.4015
v  -44.9305 8.0000 2.4015
v  -44.9305 8.0000 7.7940
v  -44.9305 8.0000 11.9084
v  -44.9305 8.0000 17.7274
v  -44.9305 8.0000 18.7274
v  -43.9235 8.0000 18.7274
v  -41.8613 8.0000 18.7274
v  -38.9856 8.0000 18.7274
v  -36.2339 8.0000 18.7274
v  -33.0170 8.0000 18.7274
v  -28.7098 8.0000 18.7274
v  -27.7254 8.0000 18.7274
v  -25.3329 8.0000 18.7274
v  -22.2133 8.0000 18.7274
v  -18.7783 8.0000 18.7274
v  -15.6948 8.0000 18.7274
v  -7.1887 8.0000 18.7274
v  -3.8871 8.0000 18.7274
v  -0.8116 8.0000 18.7274
v  2.4654 8.0000 18.7274
v  4.6897 8.0000 18.7274
v  4.6897 8.0000 17.7274
v  2.4654 8.0000 17.7274
v  -0.8116 8.0000 17.7274
v  -3.8871 8.0000 17.7274
v  -7.1887 8.0000 17.7274
v  -7.8108 8.0000 17.7274
v  -8.8882 8.0000 17.7274
v  -8.8882 8.0000 11.1833
v  -8.8882 8.0000 7.5124
v  -8.8882 8.0000 2.4015
v  -8.5922 8.0000 2.4015
v  -5.1814 8.0000 2.4015
v  4.6899 8.0000 2.8006
v  4.6899 8.0000 3.9092
v  4.6898 8.0000 7.8397
v  4.6898 8.0000 13.2780
v  -8.8882 8.0000 18.7274
v  -7.8108 8.0000 18.7274
v  -15.1060 8.0000 18.7274
v  -13.6333 8.0000 18.7274
v  -9.8795 8.0000 18.7274
v  -9.8795 8.0000 17.7274
v  -13.6333 8.0000 17.7274
v  -15.1060 8.0000 17.7274
v  -15.6948 8.0000 17.7274
v  -18.7783 8.0000 17.7274
v  -22.2133 8.0000 17.7274
v  -25.3329 8.0000 17.7274
v  -27.7254 8.0000 17.7274
v  -27.7254 8.0000 6.9938
v  -27.7254 8.0000 3.6076
v  -27.7254 8.0000 2.4015
v  -13.3704 8.0000 2.4015
v  -10.0582 8.0000 2.4015
v  -9.8791 8.0000 2.4015
v  -9.8792 8.0000 7.5124
v  -9.8793 8.0000 11.1833
v  -28.7098 8.0000 17.7274
v  -33.0170 8.0000 17.7274
v  -36.2339 8.0000 17.7274
v  -38.9856 8.0000 17.7274
v  -41.8613 8.0000 17.7274
v  -43.9235 8.0000 17.7274
v  -43.9235 8.0000 11.9084
v  -43.9235 8.0000 7.7940
v  -43.9235 8.0000 2.4015
v  -37.0806 8.0000 2.4015
v  -33.1778 8.0000 2.4015
v  -28.7098 8.0000 2.4015
v  -28.7098 8.0000 3.6076
v  -28.7098 8.0000 6.9938
v  5.6897 8.0000 2.1567
v  4.6899 8.0000 2.1567
v  -5.1814 8.0000 1.7576
v  -8.5922 8.0000 1.7576
v  -8.8882 8.0000 1.7576
v  -9.8791 8.0000 1.7576
v  -10.0582 8.0000 1.7576
v  -13.3704 8.0000 1.7576
v  -27.7254 8.0000 1.7576
v  -27.7254 8.0000 -0.9948
v  -27.7253 8.0000 -6.2717
v  -27.7253 8.0000 -9.1608
v  -21.2111 8.0000 -8.3265
v  -20.3267 8.0000 -8.3265
v  9.0958 8.0000 -7.9728
v  9.0958 8.0000 -1.4904
v  9.0958 8.0000 2.1567
v  -28.7098 8.0000 1.7576
v  -33.1778 8.0000 1.7576
v  -37.0806 8.0000 1.7576
v  -43.9235 8.0000 1.7576
v  -43.9235 8.0000 -1.1657
v  -43.9235 8.0000 -6.4140
v  -43.9235 8.0000 -9.1608
v  -37.0806 8.0000 -9.1608
v  -33.1778 8.0000 -9.1608
v  -28.7098 8.0000 -9.1608
v  -28.7098 8.0000 -6.2717
v  -28.7098 8.0000 -0.9948
v  -44.9305 8.0000 1.7576
v  -50.4403 8.0000 1.7576
v  -50.4403 8.0000 -1.3651
v  -50.4403 8.0000 -5.8585
v  -50.4403 8.0000 -9.1608
v  -44.9305 8.0000 -9.1608
v  -44.9305 8.0000 -6.4140
v  -44.9305 8.0000 -1.1657
v  -21.2111 8.0000 -9.0132
v  -27.7253 8.0000 -9.8474
v  -27.7253 8.0000 -13.1152
v  -27.7253 8.0000 -19.8030
v  -27.7253 8.0000 -26.8274
v  -28.7098 8.0000 -26.8274
v  -28.7098 8.0000 -19.8030
v  -28.7098 8.0000 -13.1152
v  -28.7098 8.0000 -9.8474
v  -33.1778 8.0000 -9.8474
v  -37.0806 8.0000 -9.8474
v  -43.9235 8.0000 -9.8474
v  -43.9235 8.0000 -11.8287
v  -43.9235 8.0000 -16.1832
v  -43.9235 8.0000 -19.9798
v  -43.9235 8.0000 -26.8254
v  -42.3531 8.0000 -26.8281
v  -38.4012 8.0000 -26.8307
v  -33.4567 8.0000 -26.8360
v  -29.8893 8.0000 -26.8465
v  -21.2110 8.0000 -26.8465
v  -43.9235 11.9749 -24.3524
v  -44.9305 8.0000 -19.9798
v  -43.9235 8.0000 -24.3524
v  -15.1060 11.9749 23.4995
v  -15.6948 11.9749 23.4995
v  -7.8101 11.9749 23.4995
v  -7.1887 11.9749 23.4995
v  -7.8101 11.9749 24.3582
v  -7.1887 11.9749 24.3582
v  -15.1060 11.9749 24.3582
v  -15.6948 11.9749 24.3582
v  -15.6948 8.0000 23.4995
v  -15.6948 8.0000 24.3582
v  -15.1060 8.0000 24.3582
v  -15.1060 8.0000 23.4995
v  -7.8101 8.0000 24.3582
v  -7.1887 8.0000 24.3582
v  -7.1887 8.0000 23.4995
v  -7.8101 8.0000 23.4995
# 352 vertices

vn -0.3015 0.9045 -0.3015
vn 0.0000 0.7071 0.7071
vn 0.5774 0.5774 0.5774
vn 0.7071 0.7071 -0.0000
vn 0.0000 0.7071 -0.7071
vn 0.3015 0.9045 -0.3015
vn -0.7071 0.7071 -0.0000
vn -0.5774 0.5774 0.5774
vn -0.7071 0.7071 0.0000
vn -0.3147 0.8998 0.3023
vn 0.3015 0.9045 0.3015
vn 0.0142 0.7117 -0.7024
vn -0.3015 0.9045 0.3015
vn 0.7071 0.7071 0.0000
vn 0.2604 0.9190 0.2959
vn 0.3434 0.8893 -0.3022
vn -0.3054 0.9031 0.3018
vn 0.5814 0.5782 -0.5724
vn 0.0098 0.7067 -0.7074
vn -0.5774 0.5774 -0.5774
vn 0.3054 0.9031 -0.3018
vn -0.0042 0.7085 0.7057
vn -0.2604 0.9190 -0.2959
vn -0.0459 0.6931 0.7194
vn 0.3021 0.9044 0.3015
vn 0.5774 0.5774 -0.5774
vn 0.0008 0.7073 0.7069
vn -0.0142 0.7117 0.7024
vn 0.0144 0.7026 -0.7115
vn 0.0010 0.7074 0.7068
vn 0.0014 0.7069 0.7073
vn 0.0006 0.7071 0.7071
vn 0.7071 0.0000 0.7071
vn 0.8944 -0.4472 -0.0000
vn 0.0000 0.0000 1.0000
vn 0.7071 -0.0000 0.7071
vn 1.0000 -0.0000 -0.0000
vn 0.7126 -0.0000 -0.7015
vn 0.0138 -0.0000 -0.9999
vn 0.7113 0.0000 -0.7028
vn 1.0000 0.0000 -0.0000
vn 0.7071 0.0000 -0.7071
vn 0.0000 0.0000 -1.0000
vn 0.0000 -0.4472 -0.8944
vn -0.7071 0.0000 -0.7071
vn -1.0000 0.0000 -0.0000
vn -0.8944 -0.4472 -0.0000
vn -0.7071 0.0000 0.7071
vn 0.0000 -0.4472 0.8944
vn -0.5774 -0.5774 0.5774
vn 0.5774 -0.5774 0.5774
vn -0.5773 -0.5773 -0.5774
vn -0.0181 -0.4473 0.8942
vn -0.7213 -0.0000 0.6927
vn -0.7071 0.0000 0.7072
vn -0.8944 -0.4472 0.0000
vn 0.0202 0.0000 -0.9998
vn 0.0181 -0.4473 -0.8942
vn 0.8944 -0.4472 0.0000
vn 0.6607 0.0000 0.7507
vn -0.0636 0.0000 0.9980
vn -0.0060 0.0000 1.0000
vn -0.7113 0.0000 0.7028
vn -0.5774 -0.5774 -0.5774
vn -0.6607 0.0000 -0.7507
vn 0.7507 0.0000 -0.6607
vn 0.7078 0.0000 0.7064
vn 0.0010 -0.4471 0.8945
vn 0.0008 -0.4474 0.8943
vn 0.0018 -0.4466 0.8947
vn 0.0013 -0.4479 0.8941
vn -0.5774 0.5774 -0.5773
vn -1.0000 0.0000 0.0001
# 73 vertex normals

vt 0.0000 1.0000 0.0000
vt 0.0000 0.0000 0.0000
vt 1.0000 0.0000 0.0000
vt 1.0000 1.0000 0.0000
# 4 texture coords

o Plane002
g Plane002
usemtl wire_027177027
s 1
f 1/1/1 2/2/2 3/3/3 4/4/4 
s off
f 2/2/2 1/1/1 5/1/5 6/2/2 
f 6/2/2 5/1/5 7/1/5 8/2/2 
f 8/2/2 7/1/5 9/1/5 10/2/2 
f 10/2/2 9/1/5 11/1/5 12/2/2 
f 12/2/2 11/1/5 13/1/5 14/2/2 
f 14/2/2 13/1/5 15/1/6 16/2/2 
f 16/2/2 15/1/6 17/1/1 18/2/2 
f 18/2/2 17/1/1 19/1/5 20/2/2 
f 20/2/2 19/1/5 21/1/5 22/2/2 
f 22/2/2 21/1/5 23/1/5 24/2/2 
f 24/2/2 23/1/5 25/1/5 26/2/2 
f 26/2/2 25/1/5 27/1/5 28/2/2 
f 28/2/2 27/1/5 29/1/5 30/2/2 
f 30/2/2 29/1/5 31/1/6 32/2/2 
f 32/2/2 31/1/6 33/1/1 34/2/2 
f 34/2/2 33/1/1 35/1/5 36/2/2 
f 36/2/2 35/1/5 37/1/5 38/2/2 
f 38/2/2 37/1/5 39/1/5 40/2/2 
f 40/2/2 39/1/5 41/1/5 42/2/2 
f 42/2/2 41/1/5 43/1/6 44/2/2 
f 44/2/2 43/1/6 45/1/7 46/2/8 
f 1/1/1 4/4/4 47/4/4 48/1/7 
f 17/1/1 15/1/6 49/1/4 50/1/7 
f 33/1/1 31/1/6 51/1/4 52/1/9 
f 45/1/7 43/1/6 53/1/4 54/1/7 
f 55/1/10 56/4/11 57/4/5 58/1/12 
f 59/1/13 60/1/11 61/1/5 62/1/5 
f 63/1/13 64/1/11 65/1/6 66/1/1 
f 67/1/13 68/1/11 69/1/6 70/1/1 
f 69/1/6 68/1/11 71/1/2 72/1/5 
f 65/1/6 64/1/11 73/1/2 74/1/5 
f 61/1/5 60/1/11 75/1/2 76/1/5 
f 57/4/5 56/4/11 77/4/2 78/4/1 
f 78/4/1 77/4/2 79/4/3 80/4/4 
f 67/1/13 70/1/1 81/1/6 82/1/2 
f 82/1/2 81/1/6 83/1/7 84/1/8 
f 66/1/1 65/1/6 85/1/14 86/1/7 
f 70/1/1 69/1/6 87/1/14 88/1/7 
f 78/4/1 80/4/4 89/4/4 90/4/7 
f 83/1/7 81/1/6 91/1/4 92/1/7 
f 93/1/13 94/1/15 95/1/16 96/1/1 
f 97/1/13 98/1/11 99/1/6 100/1/1 
f 101/4/17 102/4/4 103/4/18 104/4/19 
f 105/1/7 106/1/11 107/1/5 108/1/20 
f 101/4/17 104/4/19 109/4/21 110/4/22 
f 110/4/22 109/4/21 111/4/23 112/4/24 
f 112/4/24 111/4/23 95/4/16 94/4/15 
f 93/1/13 96/1/1 113/1/5 114/1/2 
f 97/1/13 100/1/1 107/1/5 106/1/11 
f 100/1/1 99/1/6 115/1/4 116/1/7 
f 111/4/23 109/4/21 117/4/4 118/4/13 
f 119/1/7 120/1/25 121/1/5 122/1/20 
f 118/4/13 117/4/4 123/4/26 124/4/5 
f 121/1/5 120/1/25 125/1/27 126/1/5 
f 49/1/4 127/1/4 128/1/7 50/1/7 
f 127/1/4 60/1/11 59/1/13 128/1/7 
f 47/4/4 129/4/4 130/1/7 48/1/7 
f 129/4/4 131/4/4 132/1/7 130/1/7 
f 131/4/4 56/4/11 55/1/10 132/1/7 
f 51/1/4 133/1/4 134/1/9 52/1/9 
f 133/1/4 64/1/11 63/1/13 134/1/9 
f 53/1/4 135/1/4 136/1/7 54/1/7 
f 135/1/4 68/1/11 67/1/13 136/1/7 
f 87/1/14 137/1/14 138/1/7 88/1/7 
f 137/1/14 98/1/11 97/1/13 138/1/7 
f 85/1/14 139/1/14 140/1/7 86/1/7 
f 139/1/14 94/1/15 93/1/13 140/1/7 
f 91/1/4 141/1/4 142/1/7 92/1/7 
f 141/1/4 106/1/11 105/1/7 142/1/7 
f 75/1/2 143/1/28 144/1/29 76/1/5 
f 143/1/28 55/1/10 58/1/12 144/1/29 
f 145/1/2 59/1/13 62/1/5 146/1/5 
f 73/1/2 145/1/2 146/1/5 74/1/5 
f 96/1/1 95/1/16 147/1/4 148/1/7 
f 148/1/7 147/1/4 149/1/4 150/1/7 
f 150/1/7 149/1/4 151/1/26 152/1/20 
f 153/1/30 118/1/13 124/1/5 154/1/5 
f 155/1/31 153/1/30 154/1/5 156/1/5 
f 157/1/32 155/1/31 156/1/5 158/1/5 
f 125/1/27 157/1/32 158/1/5 126/1/5 
f 159/1/4 160/1/4 161/1/7 162/1/7 
f 115/1/4 159/1/4 162/1/7 116/1/7 
f 89/4/4 102/4/4 101/4/17 90/4/7 
f 163/1/5 99/1/6 98/1/11 164/1/2 
f 71/1/2 165/1/2 166/1/5 72/1/5 
f 113/1/5 163/1/5 164/1/2 114/1/2 
f 165/1/2 63/1/13 66/1/1 166/1/5 
f 167/3/33 168/4/34 4/4/4 3/3/3 
f 168/4/34 169/4/34 47/4/4 4/4/4 
f 169/4/34 170/4/34 129/4/4 47/4/4 
f 170/4/34 171/4/34 131/4/4 129/4/4 
f 171/4/34 172/4/33 56/4/11 131/4/4 
f 172/4/33 173/4/35 77/4/2 56/4/11 
f 173/4/35 174/4/36 79/4/3 77/4/2 
f 174/4/36 175/4/34 80/4/4 79/4/3 
f 175/4/34 176/4/34 89/4/4 80/4/4 
f 176/4/34 177/4/37 102/4/4 89/4/4 
f 177/4/37 178/4/38 103/4/18 102/4/4 
f 178/4/38 179/4/39 104/4/19 103/4/18 
f 179/4/39 180/4/40 109/4/21 104/4/19 
f 180/4/40 181/4/41 117/4/4 109/4/21 
f 181/4/41 182/4/42 123/4/26 117/4/4 
f 182/4/42 183/4/43 124/4/5 123/4/26 
f 183/1/43 184/1/44 154/1/5 124/1/5 
f 184/1/44 185/1/44 156/1/5 154/1/5 
f 185/1/44 186/1/44 158/1/5 156/1/5 
f 186/1/44 187/1/44 126/1/5 158/1/5 
f 187/1/44 188/1/43 121/1/5 126/1/5 
f 188/1/43 189/1/45 122/1/20 121/1/5 
f 189/1/45 190/1/46 119/1/7 122/1/20 
f 190/1/46 191/1/47 192/1/7 119/1/7 
f 193/1/47 194/1/47 116/1/7 162/1/7 
f 194/1/47 195/1/45 100/1/1 116/1/7 
f 195/1/45 196/1/43 107/1/5 100/1/1 
f 196/1/43 197/1/45 108/1/20 107/1/5 
f 197/1/45 198/1/46 105/1/7 108/1/20 
f 198/1/46 199/1/47 142/1/7 105/1/7 
f 199/1/47 200/1/47 92/1/7 142/1/7 
f 200/1/47 201/1/46 83/1/7 92/1/7 
f 201/1/46 202/1/48 84/1/8 83/1/7 
f 202/1/48 203/1/35 82/1/2 84/1/8 
f 203/1/35 204/1/48 67/1/13 82/1/2 
f 204/1/48 205/1/47 136/1/7 67/1/13 
f 205/1/47 206/1/47 54/1/7 136/1/7 
f 206/1/47 207/1/46 45/1/7 54/1/7 
f 207/1/46 208/2/48 46/2/8 45/1/7 
f 208/2/48 209/2/35 44/2/2 46/2/8 
f 209/2/35 210/2/49 42/2/2 44/2/2 
f 210/2/49 211/2/49 40/2/2 42/2/2 
f 211/2/49 212/2/49 38/2/2 40/2/2 
f 212/2/49 213/2/49 36/2/2 38/2/2 
f 213/2/49 214/2/35 34/2/2 36/2/2 
f 214/2/35 215/2/35 32/2/2 34/2/2 
f 215/2/35 216/2/49 30/2/2 32/2/2 
f 216/2/49 217/2/49 28/2/2 30/2/2 
f 217/2/49 218/2/49 26/2/2 28/2/2 
f 218/2/49 219/2/50 24/2/2 26/2/2 
f 220/2/51 221/2/49 10/2/2 12/2/2 
f 221/2/49 222/2/49 8/2/2 10/2/2 
f 222/2/49 223/2/49 6/2/2 8/2/2 
f 223/2/49 224/2/35 2/2/2 6/2/2 
f 224/2/35 167/3/33 3/3/3 2/2/2 
f 225/1/52 226/1/44 5/1/5 1/1/1 
f 226/1/44 227/1/44 7/1/5 5/1/5 
f 227/1/44 228/1/44 9/1/5 7/1/5 
f 228/1/44 229/1/44 11/1/5 9/1/5 
f 229/1/44 230/1/43 13/1/5 11/1/5 
f 230/1/43 231/1/42 15/1/6 13/1/5 
f 231/1/42 232/1/34 49/1/4 15/1/6 
f 232/1/34 233/1/34 127/1/4 49/1/4 
f 233/1/34 234/1/33 60/1/11 127/1/4 
f 234/1/33 235/1/49 75/1/2 60/1/11 
f 235/1/49 236/1/53 143/1/28 75/1/2 
f 236/1/53 237/1/54 55/1/10 143/1/28 
f 237/1/54 238/1/47 132/1/7 55/1/10 
f 238/1/47 239/1/47 130/1/7 132/1/7 
f 239/1/47 240/1/47 48/1/7 130/1/7 
f 240/1/47 225/1/52 1/1/1 48/1/7 
f 241/2/35 242/2/55 14/2/2 16/2/2 
f 243/2/33 244/2/49 20/2/2 22/2/2 
f 244/2/49 245/2/49 18/2/2 20/2/2 
f 245/2/49 241/2/35 16/2/2 18/2/2 
f 246/1/52 247/1/44 19/1/5 17/1/1 
f 247/1/44 248/1/43 21/1/5 19/1/5 
f 248/1/43 249/1/44 23/1/5 21/1/5 
f 249/1/44 250/1/44 25/1/5 23/1/5 
f 250/1/44 251/1/44 27/1/5 25/1/5 
f 251/1/44 252/1/44 29/1/5 27/1/5 
f 252/1/44 253/1/42 31/1/6 29/1/5 
f 253/1/42 254/1/34 51/1/4 31/1/6 
f 254/1/34 255/1/34 133/1/4 51/1/4 
f 255/1/34 256/1/33 64/1/11 133/1/4 
f 256/1/33 257/1/49 73/1/2 64/1/11 
f 257/1/49 258/1/49 145/1/2 73/1/2 
f 258/1/49 259/1/48 59/1/13 145/1/2 
f 259/1/48 260/1/47 128/1/7 59/1/13 
f 260/1/47 261/1/47 50/1/7 128/1/7 
f 261/1/47 246/1/52 17/1/1 50/1/7 
f 262/1/45 263/1/44 35/1/5 33/1/1 
f 263/1/44 264/1/44 37/1/5 35/1/5 
f 264/1/44 265/1/44 39/1/5 37/1/5 
f 265/1/44 266/1/44 41/1/5 39/1/5 
f 266/1/44 267/1/42 43/1/6 41/1/5 
f 267/1/42 268/1/34 53/1/4 43/1/6 
f 268/1/34 269/1/34 135/1/4 53/1/4 
f 269/1/34 270/1/33 68/1/11 135/1/4 
f 270/1/33 271/1/49 71/1/2 68/1/11 
f 271/1/49 272/1/49 165/1/2 71/1/2 
f 272/1/49 273/1/48 63/1/13 165/1/2 
f 273/1/48 274/1/56 134/1/9 63/1/13 
f 274/1/56 275/1/56 52/1/9 134/1/9 
f 275/1/56 262/1/45 33/1/1 52/1/9 
f 276/4/43 277/1/57 58/1/12 57/4/5 
f 277/1/57 278/1/58 144/1/29 58/1/12 
f 278/1/58 279/1/44 76/1/5 144/1/29 
f 279/1/44 280/1/43 61/1/5 76/1/5 
f 280/1/43 281/1/43 62/1/5 61/1/5 
f 281/1/43 282/1/44 146/1/5 62/1/5 
f 282/1/44 283/1/44 74/1/5 146/1/5 
f 283/1/44 284/1/42 65/1/6 74/1/5 
f 284/1/42 285/1/59 85/1/14 65/1/6 
f 285/1/59 286/1/59 139/1/14 85/1/14 
f 286/1/59 287/1/60 94/1/15 139/1/14 
f 287/4/60 288/4/61 112/4/24 94/4/15 
f 288/4/61 289/4/62 110/4/22 112/4/24 
f 289/4/62 290/4/63 101/4/17 110/4/22 
f 290/4/63 291/4/47 90/4/7 101/4/17 
f 291/4/47 292/4/64 78/4/1 90/4/7 
f 292/4/64 276/4/43 57/4/5 78/4/1 
f 293/1/45 294/1/44 166/1/5 66/1/1 
f 294/1/44 295/1/44 72/1/5 166/1/5 
f 295/1/44 296/1/42 69/1/6 72/1/5 
f 296/1/42 297/1/59 87/1/14 69/1/6 
f 297/1/59 298/1/59 137/1/14 87/1/14 
f 298/1/59 299/1/33 98/1/11 137/1/14 
f 299/1/33 300/1/49 164/1/2 98/1/11 
f 300/1/49 301/1/49 114/1/2 164/1/2 
f 301/1/49 302/1/48 93/1/13 114/1/2 
f 302/1/48 303/1/47 140/1/7 93/1/13 
f 303/1/47 304/1/47 86/1/7 140/1/7 
f 304/1/47 293/1/45 66/1/1 86/1/7 
f 305/1/45 306/1/42 81/1/6 70/1/1 
f 306/1/42 307/1/34 91/1/4 81/1/6 
f 307/1/34 308/1/34 141/1/4 91/1/4 
f 308/1/34 309/1/33 106/1/11 141/1/4 
f 309/1/33 310/1/48 97/1/13 106/1/11 
f 310/1/48 311/1/47 138/1/7 97/1/13 
f 311/1/47 312/1/47 88/1/7 138/1/7 
f 312/1/47 305/1/45 70/1/1 88/1/7 
f 313/4/65 314/4/66 95/4/16 111/4/23 
f 314/1/66 315/1/34 147/1/4 95/1/16 
f 315/1/34 316/1/34 149/1/4 147/1/4 
f 316/1/34 317/1/42 151/1/26 149/1/4 
f 317/1/42 318/1/45 152/1/20 151/1/26 
f 318/1/45 319/1/47 150/1/7 152/1/20 
f 319/1/47 320/1/47 148/1/7 150/1/7 
f 320/1/47 321/1/45 96/1/1 148/1/7 
f 321/1/45 322/1/44 113/1/5 96/1/1 
f 322/1/44 323/1/44 163/1/5 113/1/5 
f 323/1/44 324/1/42 99/1/6 163/1/5 
f 324/1/42 325/1/34 115/1/4 99/1/6 
f 325/1/34 326/1/34 159/1/4 115/1/4 
f 326/1/34 327/1/34 160/1/4 159/1/4 
f 328/1/67 329/1/68 125/1/27 120/1/25 
f 329/1/68 330/1/69 157/1/32 125/1/27 
f 330/1/69 331/1/70 155/1/31 157/1/32 
f 331/1/70 332/1/71 153/1/30 155/1/31 
f 332/1/71 333/1/48 118/1/13 153/1/30 
f 333/4/48 313/4/65 111/4/23 118/4/13 
s 1
f 211/2/49 210/2/49 266/1/44 265/1/44 
f 213/2/49 212/2/49 264/1/44 263/1/44 
s 4
f 272/1/49 271/1/49 295/1/44 294/1/44 
s 1
f 217/2/49 216/2/49 252/1/44 251/1/44 
f 219/2/50 218/2/49 250/1/44 249/1/44 
f 221/2/49 220/2/51 229/1/44 228/1/44 
f 223/2/49 222/2/49 227/1/44 226/1/44 
s 8
f 283/1/44 282/1/44 258/1/49 257/1/49 
f 236/1/53 235/1/49 279/1/44 278/1/58 
f 301/1/49 300/1/49 323/1/44 322/1/44 
s 1
f 187/1/44 186/1/44 330/1/69 329/1/68 
f 185/1/44 184/1/44 332/1/71 331/1/70 
s 8
f 245/2/49 244/2/49 247/1/44 246/1/52 
s 4
f 316/1/34 315/1/34 320/1/47 319/1/47 
s 1
f 194/1/47 193/1/47 326/1/34 325/1/34 
s 8
f 286/1/59 285/1/59 304/1/47 303/1/47 
s 4
f 233/1/34 232/1/34 261/1/47 260/1/47 
s 1
f 169/4/34 168/4/34 225/1/52 240/1/47 
f 171/4/34 170/4/34 239/1/47 238/1/47 
s 8
f 176/4/34 175/4/34 292/4/64 291/4/47 
s 1
f 206/1/47 205/1/47 269/1/34 268/1/34 
s 8
f 255/1/34 254/1/34 275/1/56 274/1/56 
f 308/1/34 307/1/34 200/1/47 199/1/47 
f 298/1/59 297/1/59 312/1/47 311/1/47 
s off
f 334/1/4 120/1/25 119/1/7 192/1/7 
f 191/1/47 335/1/47 161/1/7 192/1/7 
f 336/1/34 328/1/67 120/1/25 334/1/4 
f 160/1/4 334/1/4 192/1/7 161/1/7 
f 327/1/34 336/1/34 334/1/4 160/1/4 
f 335/1/47 193/1/47 162/1/7 161/1/7 
s 1
f 335/1/47 191/1/47 336/1/34 327/1/34 
s 4
f 337/2/4 22/2/26 24/1/20 338/1/7 
f 14/2/72 339/2/9 340/1/4 12/1/26 
s 1
f 340/1/4 339/2/9 341/1/8 342/1/3 
f 343/1/3 337/2/4 338/1/7 344/1/8 
s 8
f 14/1/2 242/2/55 220/1/51 12/4/2 
f 243/2/33 22/1/2 24/4/2 219/1/50 
s off
f 219/1/50 345/1/46 338/1/7 24/1/20 
f 345/1/46 346/1/48 344/1/8 338/1/7 
f 346/1/48 347/1/33 343/1/3 344/1/8 
f 347/1/33 348/2/41 337/2/4 343/1/3 
f 348/2/41 243/2/33 22/2/26 337/2/4 
f 243/2/33 219/1/50 24/1/20 22/2/26 
f 349/1/48 350/1/33 342/1/3 341/1/8 
f 350/1/33 351/1/41 340/1/4 342/1/3 
f 351/1/41 220/1/51 12/1/26 340/1/4 
f 220/1/51 242/2/55 14/2/72 12/1/26 
f 242/2/55 352/2/73 339/2/9 14/2/72 
f 352/2/73 349/1/48 341/1/8 339/2/9 
# 299 polygons

